<?xml version="1.0" standalone="no"?>
<!DOCTYPE svg PUBLIC "-//W3C//DTD SVG 20010904//EN"
 "http://www.w3.org/TR/2001/REC-SVG-20010904/DTD/svg10.dtd">
<svg version="1.0" xmlns="http://www.w3.org/2000/svg"
 width="226.000000pt" height="223.000000pt" viewBox="0 0 226.000000 223.000000"
 preserveAspectRatio="xMidYMid meet">
<metadata>
Created by potrace 1.10, written by Peter Selinger 2001-2011
</metadata>
<g transform="translate(0.000000,223.000000) scale(0.100000,-0.100000)"
fill="#000000" stroke="none">
<path d="M1110 2181 c-30 -74 -112 -128 -283 -188 -56 -19 -113 -41 -127 -48
-42 -22 -90 -76 -101 -116 -11 -35 -14 -37 -63 -44 -114 -15 -170 -57 -266
-200 -89 -132 -138 -174 -222 -189 l-36 -7 33 -48 c41 -62 62 -153 69 -301 6
-141 23 -198 75 -260 39 -46 41 -52 41 -117 1 -87 23 -143 118 -291 101 -156
112 -192 86 -279 -6 -21 -6 -21 38 -5 28 10 76 16 138 17 87 0 102 -3 187 -37
127 -52 198 -51 308 3 15 7 35 3 82 -16 93 -37 160 -34 276 13 85 34 99 37
187 36 62 -1 110 -7 139 -17 41 -16 43 -16 36 1 -31 75 -12 142 78 276 95 141
122 207 123 299 2 70 4 79 27 97 14 11 38 45 53 75 22 47 28 75 35 188 13 193
35 281 87 340 14 16 14 19 2 27 -8 6 -23 10 -33 10 -59 0 -135 70 -221 202
-80 122 -141 167 -251 183 -48 7 -51 9 -75 58 -36 73 -79 102 -226 153 -154
53 -220 94 -265 163 -18 28 -33 51 -34 51 -2 0 -8 -13 -15 -29z m56 -63 c43
-61 96 -94 223 -139 177 -62 223 -93 255 -170 14 -33 20 -37 63 -44 106 -16
163 -56 241 -174 31 -47 72 -103 91 -124 34 -37 97 -77 123 -77 7 0 19 -4 27
-9 12 -8 12 -13 -2 -35 -42 -64 -58 -130 -71 -292 -14 -175 -30 -225 -88 -281
-25 -24 -28 -33 -28 -97 -1 -90 -23 -146 -118 -289 -79 -119 -97 -168 -87
-235 l7 -45 -28 7 c-137 35 -196 31 -325 -20 -109 -42 -177 -45 -262 -10 l-58
24 -59 -24 c-88 -35 -159 -33 -262 10 -46 19 -104 37 -129 41 -42 6 -146 -5
-208 -22 -17 -4 -22 -3 -17 6 4 6 7 36 7 65 0 61 -17 101 -93 215 -83 122
-112 194 -114 279 -1 67 -4 76 -32 105 -16 18 -37 46 -45 63 -20 39 -37 140
-37 219 0 98 -17 176 -54 248 l-34 67 26 6 c85 21 153 78 212 179 69 118 158
186 262 201 42 5 48 10 58 39 12 37 68 98 108 119 15 7 70 28 122 46 151 51
200 81 254 153 16 20 31 37 35 37 4 0 21 -19 37 -42z"/>
<path d="M1107 2105 c-20 -38 -82 -98 -124 -119 -18 -9 -83 -34 -144 -56 -128
-45 -174 -76 -208 -143 -13 -26 -30 -47 -39 -47 -9 0 -42 -7 -73 -16 -76 -21
-126 -65 -198 -173 -32 -47 -71 -99 -87 -115 -33 -33 -98 -65 -131 -66 -29 0
-29 -2 3 -49 40 -60 55 -125 64 -271 10 -155 27 -213 76 -264 31 -32 34 -40
34 -94 0 -92 31 -165 131 -314 65 -95 85 -165 64 -227 -6 -19 -4 -23 8 -18 45
17 145 29 198 24 33 -4 92 -21 132 -39 93 -41 185 -44 263 -10 l50 23 50 -22
c78 -35 170 -32 263 9 41 18 101 35 132 39 50 5 152 -7 194 -24 11 -4 13 7 8
50 -7 66 15 118 100 246 71 104 97 173 97 253 0 53 4 64 31 96 56 64 70 111
80 266 8 146 21 198 64 272 30 51 30 54 5 54 -68 0 -138 58 -215 176 -29 44
-73 98 -98 120 -45 39 -125 74 -172 74 -17 0 -29 12 -46 47 -33 67 -89 105
-217 147 -149 50 -204 87 -263 176 l-16 25 -16 -30z m132 -143 c24 -14 94 -43
155 -64 131 -44 174 -76 201 -146 20 -52 20 -52 65 -52 54 0 135 -36 171 -76
15 -16 49 -63 77 -105 63 -95 105 -137 159 -161 24 -10 43 -21 43 -24 0 -3 -7
-19 -16 -36 -28 -55 -35 -89 -49 -250 -11 -137 -16 -163 -38 -201 -15 -24 -38
-52 -52 -61 -23 -15 -25 -21 -19 -69 9 -78 -16 -149 -100 -279 -80 -124 -111
-194 -104 -233 5 -24 4 -25 -31 -18 -83 17 -172 7 -271 -32 -112 -44 -173 -45
-254 -4 l-49 24 -50 -24 c-82 -41 -145 -39 -257 5 -79 31 -108 37 -170 38 -41
0 -87 -3 -102 -7 -27 -7 -28 -6 -28 28 0 45 -35 123 -95 210 -80 116 -107 184
-107 267 0 71 -1 73 -43 120 -48 53 -65 105 -65 197 0 92 -19 210 -44 273
l-23 56 56 29 c42 22 67 44 101 91 130 182 134 187 189 215 39 19 70 27 108
27 52 0 53 1 53 28 0 40 50 105 96 127 22 10 75 31 120 46 121 41 171 67 217
114 l42 43 34 -35 c19 -19 55 -46 80 -61z"/>
<path d="M1030 1781 c0 -59 3 -71 16 -71 12 0 15 7 12 30 -4 27 -2 30 24 30
24 0 28 -4 28 -30 0 -19 5 -30 14 -30 19 0 17 131 -2 138 -8 2 -12 -7 -12 -27
0 -28 -3 -31 -29 -31 -26 0 -30 3 -28 26 1 15 -4 29 -10 31 -10 4 -13 -14 -13
-66z"/>
<path d="M1187 1778 c-19 -35 -30 -65 -24 -67 6 -2 16 4 22 13 17 23 56 21 62
-4 3 -11 12 -20 20 -20 11 0 14 6 9 23 -4 12 -12 43 -18 70 -6 26 -17 47 -24
47 -7 0 -28 -28 -47 -62z m53 -2 c0 -19 -4 -23 -20 -19 -16 4 -18 9 -9 24 14
26 29 24 29 -5z"/>
<path d="M890 1816 c0 -2 7 -22 15 -45 17 -49 9 -52 -30 -11 -16 17 -37 30
-46 30 -16 0 -16 -4 3 -62 24 -73 24 -72 37 -63 7 4 6 17 -4 42 -20 49 -20 49
24 14 44 -35 66 -40 58 -13 -3 9 -11 38 -18 65 -7 26 -19 47 -26 47 -7 0 -13
-2 -13 -4z"/>
<path d="M1336 1809 c-2 -8 -11 -36 -20 -63 -15 -47 -14 -72 4 -61 4 3 11 21
15 41 8 43 16 37 30 -19 14 -58 31 -57 50 5 9 29 19 59 21 66 3 6 -1 12 -10
12 -9 0 -18 -13 -22 -35 -9 -51 -21 -51 -28 -1 -7 47 -32 80 -40 55z"/>
<path d="M710 1723 c0 -61 14 -123 27 -123 9 0 12 6 9 18 -8 24 37 51 56 34 8
-6 19 -7 26 -3 8 5 -4 21 -39 49 -56 45 -79 52 -79 25z m60 -42 c0 -16 -28
-20 -34 -5 -11 28 -7 35 14 24 11 -6 20 -15 20 -19z"/>
<path d="M1461 1714 c-27 -35 -26 -59 4 -89 32 -32 68 -33 83 -1 9 21 8 27
-13 40 -13 9 -26 12 -30 7 -3 -5 -1 -12 5 -16 18 -11 10 -26 -12 -23 -27 4
-35 36 -18 67 15 29 45 26 68 -6 11 -15 22 -22 25 -16 4 6 -3 22 -14 37 -28
35 -70 35 -98 0z"/>
<path d="M1101 1667 c-12 -36 -14 -37 -47 -31 -41 8 -45 -7 -8 -31 26 -17 27
-29 7 -82 -5 -14 1 -12 29 10 22 16 39 23 43 17 3 -5 11 -10 17 -10 7 0 6 6
-2 15 -16 19 -29 19 -52 -2 -18 -16 -19 -16 -8 11 9 24 7 31 -7 42 -17 13 -17
13 3 14 12 0 25 10 31 23 l10 22 7 -22 c5 -14 15 -23 28 -23 19 0 20 -2 6 -17
-10 -12 -13 -25 -8 -38 4 -11 6 -23 4 -26 -2 -4 4 -13 13 -20 17 -15 17 -13
-4 53 -3 10 4 22 21 33 36 24 33 39 -8 31 -31 -6 -34 -4 -48 31 l-14 38 -13
-38z"/>
<path d="M593 1655 c-26 -18 -30 -47 -9 -64 10 -8 22 -7 49 4 24 10 38 11 42
4 10 -15 -15 -40 -38 -37 -11 2 -22 -3 -24 -9 -7 -20 52 -16 70 5 21 23 22 46
1 63 -12 10 -22 10 -50 0 -20 -7 -38 -10 -42 -7 -7 8 15 31 31 31 7 0 13 5 15
10 5 17 -22 16 -45 0z"/>
<path d="M1664 1629 c-4 -7 -2 -15 4 -17 22 -7 12 -30 -24 -60 -22 -18 -33
-35 -29 -42 5 -8 20 0 46 26 30 30 42 35 51 26 13 -13 28 -16 28 -4 -1 4 -16
24 -34 45 -24 27 -36 35 -42 26z"/>
<path d="M884 1601 c-50 -29 -84 -76 -84 -116 0 -26 27 -71 60 -99 23 -19 43
-26 74 -26 61 0 130 -37 134 -72 3 -29 -15 -39 -24 -13 -3 8 -22 24 -41 36
-30 19 -45 21 -108 16 -55 -4 -78 -2 -94 9 -20 15 -61 125 -61 167 0 20 -1 20
-26 -4 -65 -61 -69 -110 -13 -164 l40 -40 102 -1 c56 0 110 -1 119 -2 30 -3
88 -62 88 -89 0 -23 -2 -22 -44 20 -52 54 -87 64 -147 41 -24 -9 -65 -19 -91
-21 -58 -6 -105 20 -134 72 -22 41 -29 43 -38 13 -11 -44 -6 -69 20 -93 22
-21 37 -25 85 -25 35 0 79 8 109 20 91 36 153 23 203 -43 25 -33 26 -38 14
-72 l-13 -36 -19 22 c-36 40 -98 79 -126 79 -15 0 -74 -23 -131 -52 -121 -61
-154 -65 -198 -23 -29 28 -30 28 -30 7 0 -12 9 -31 20 -42 34 -34 88 -26 200
30 55 28 110 50 122 50 26 0 55 -18 116 -71 32 -27 40 -40 35 -57 -3 -12 -6
-22 -7 -22 -2 0 -32 29 -68 65 -39 39 -73 65 -86 65 -12 0 -77 -29 -146 -65
-68 -36 -132 -65 -141 -65 -8 0 -27 7 -40 16 -28 19 -32 9 -9 -24 26 -38 56
-29 204 62 86 53 118 57 169 19 56 -41 111 -96 111 -110 0 -20 -7 -16 -52 33
-49 53 -85 74 -128 74 -41 0 -63 -12 -135 -75 -91 -79 -121 -90 -157 -58 -20
18 -25 4 -8 -28 13 -24 57 -25 90 -2 14 10 53 41 88 71 76 63 100 74 142 62
54 -15 181 -130 144 -130 -4 0 -33 25 -66 55 -53 49 -64 55 -103 55 -42 0 -50
-5 -134 -85 -91 -85 -117 -98 -145 -70 -8 8 -17 15 -20 15 -13 0 -5 -39 12
-60 30 -37 66 -20 157 76 78 82 81 84 127 84 42 0 52 -5 103 -51 30 -29 58
-49 62 -45 6 6 32 -23 33 -36 0 -10 -63 26 -115 64 -39 28 -40 29 -43 7 -2
-12 8 -43 22 -70 l25 -48 -148 -3 -149 -3 98 -119 98 -119 62 -3 c76 -4 117
-16 197 -61 l63 -34 82 41 c80 39 185 65 220 54 12 -3 44 29 117 115 56 66
101 122 101 125 0 3 -65 6 -145 6 -80 0 -145 2 -145 5 0 3 9 18 20 33 11 15
23 45 27 67 l6 40 -24 -18 c-33 -23 -139 -87 -145 -87 -3 0 2 10 10 22 9 12
16 34 16 48 1 30 90 108 145 127 43 15 70 6 122 -40 116 -104 179 -131 203
-88 17 33 12 43 -15 25 -36 -23 -64 -12 -142 55 -81 69 -102 81 -143 81 -42 0
-66 -13 -127 -73 -31 -30 -53 -45 -53 -36 0 16 66 83 117 117 47 33 80 28 163
-24 150 -93 179 -101 206 -59 20 31 11 45 -14 22 -10 -10 -26 -17 -35 -17 -9
0 -73 29 -143 65 -70 36 -136 65 -147 65 -12 0 -48 -28 -85 -65 -47 -47 -68
-62 -74 -53 -13 22 -9 30 34 67 61 53 90 71 116 71 12 0 67 -22 122 -50 112
-56 166 -64 200 -30 11 11 20 30 20 42 l0 21 -22 -20 c-60 -54 -75 -53 -221
22 -121 62 -142 60 -228 -22 -20 -19 -39 -31 -42 -25 -9 14 121 122 147 122
12 0 54 -16 95 -35 87 -42 133 -51 189 -36 47 13 66 38 56 76 -6 24 -24 36
-24 16 0 -5 -12 -23 -26 -40 -35 -42 -83 -41 -194 4 -124 51 -137 48 -216 -49
-30 -36 -32 -37 -39 -17 -5 16 1 32 20 56 50 67 114 81 205 45 30 -12 74 -20
109 -20 88 0 125 42 105 118 -9 30 -16 28 -38 -13 -37 -67 -130 -96 -198 -61
-72 38 -133 24 -187 -41 -24 -29 -29 -32 -35 -17 -8 22 36 71 83 91 26 11 54
13 116 8 93 -8 124 2 169 55 34 41 33 68 -3 118 -37 50 -51 59 -51 34 0 -41
-41 -152 -62 -166 -16 -11 -37 -13 -83 -9 -82 7 -107 0 -148 -42 l-35 -36 -4
25 c-3 16 1 31 11 40 27 25 88 46 130 46 49 0 104 43 121 96 18 52 -15 113
-79 148 -64 34 -76 34 -56 -4 37 -72 7 -164 -76 -230 -58 -45 -77 -51 -54 -16
15 22 14 29 -10 97 -13 40 -27 74 -29 76 -3 3 -27 -62 -51 -143 -2 -6 1 -17 5
-24 6 -10 12 0 21 33 13 52 34 62 42 20 3 -16 9 -37 13 -47 5 -13 4 -17 -3
-13 -6 4 -14 24 -18 44 l-8 38 -14 -45 c-8 -25 -16 -51 -19 -58 -4 -12 -7 -10
-90 61 -61 52 -82 143 -49 207 20 39 6 39 -61 1z m17 -108 c9 -32 19 -66 24
-75 12 -29 -23 -22 -56 11 -16 16 -29 40 -29 53 0 24 25 68 38 68 4 0 15 -26
23 -57z m473 35 c9 -12 16 -33 16 -46 0 -30 -51 -82 -80 -82 -21 0 -22 1 -6
25 9 13 21 47 27 75 12 55 20 61 43 28z m-638 -166 c-9 -8 -36 19 -36 38 0 32
15 32 28 0 7 -18 11 -35 8 -38z m785 19 c-13 -24 -33 -29 -26 -6 3 8 7 23 10
32 4 11 9 13 16 6 8 -8 8 -17 0 -32z m-366 -181 c18 -69 43 -164 55 -212 l24
-86 -60 -91 c-32 -50 -61 -90 -64 -90 -3 0 -31 41 -63 91 l-59 91 46 171 c26
94 51 190 58 214 6 23 15 41 21 39 5 -1 24 -59 42 -127z m-232 -340 c24 -16
56 -34 70 -39 27 -11 93 -104 77 -109 -21 -7 -112 43 -139 77 -29 37 -65 101
-57 101 3 0 25 -13 49 -30z m421 -2 c-31 -60 -63 -94 -114 -122 -72 -39 -86
-32 -51 25 21 33 44 53 85 74 31 16 61 34 67 42 22 25 29 13 13 -19z m-416
-110 c33 -36 70 -53 135 -60 l28 -3 2 -103 c1 -56 -1 -102 -4 -102 -4 0 -12 7
-20 16 -31 37 -112 67 -196 72 l-82 4 -81 104 c-44 56 -80 104 -80 106 0 2 60
3 132 3 l132 0 34 -37z m659 32 c-1 -3 -38 -51 -82 -107 l-80 -102 -67 0 c-76
-1 -150 -25 -204 -66 l-34 -26 0 105 0 106 37 0 c47 0 118 34 144 69 l20 27
134 0 c74 -1 134 -3 132 -6z"/>
<path d="M1106 1269 c-10 -53 -7 -429 4 -429 6 0 10 83 10 230 0 127 -2 230
-4 230 -2 0 -6 -14 -10 -31z"/>
<path d="M870 660 c0 -5 14 -10 30 -10 17 0 30 5 30 10 0 6 -13 10 -30 10 -16
0 -30 -4 -30 -10z"/>
<path d="M1300 698 c0 -4 28 -8 62 -8 34 0 58 3 55 7 -10 9 -117 11 -117 1z"/>
<path d="M484 1545 c-7 -18 54 -137 67 -130 5 4 7 15 4 25 -10 32 13 63 41 56
16 -4 24 -2 24 6 0 19 -130 60 -136 43z m69 -32 c4 -3 2 -12 -4 -20 -11 -13
-14 -13 -26 3 -23 31 -10 38 30 17z"/>
<path d="M1722 1499 c-46 -34 -54 -65 -24 -92 26 -24 48 -21 90 10 20 15 39
29 41 30 3 2 0 8 -5 13 -7 7 -25 -1 -53 -21 -40 -30 -43 -31 -59 -15 -16 16
-15 19 18 47 19 16 38 29 42 29 4 0 8 7 8 15 0 22 -11 19 -58 -16z"/>
<path d="M427 1477 c-3 -7 1 -21 9 -32 20 -28 18 -33 -18 -37 -17 -2 -33 -9
-36 -15 -3 -10 8 -11 42 -7 37 5 51 3 66 -11 15 -13 24 -15 31 -8 8 8 4 16
-16 29 -14 9 -35 34 -46 56 -21 42 -24 44 -32 25z"/>
<path d="M1792 1363 c-44 -3 -62 -8 -59 -16 2 -7 12 -11 21 -11 9 1 23 -11 31
-27 13 -24 13 -29 0 -36 -8 -5 -11 -14 -7 -21 11 -17 107 81 99 102 -4 9 -10
15 -14 14 -4 -1 -36 -3 -71 -5z m43 -43 c-19 -21 -35 -18 -35 6 0 9 10 14 27
14 25 0 26 -1 8 -20z"/>
<path d="M348 1319 c-6 -18 95 -110 104 -96 4 7 1 17 -8 23 -12 10 -13 16 -3
38 7 14 20 26 31 26 10 0 18 5 18 10 0 14 -137 13 -142 -1z m82 -16 c0 -5 -4
-14 -8 -21 -7 -9 -13 -8 -27 8 -18 20 -18 20 8 20 15 0 27 -3 27 -7z"/>
<path d="M320 1243 c0 -13 9 -28 20 -35 28 -17 25 -25 -10 -33 -16 -4 -30 -13
-30 -21 0 -17 2 -17 46 1 25 10 42 12 60 5 33 -13 34 -13 34 4 0 8 -11 17 -25
20 -14 4 -41 23 -60 44 -31 34 -34 35 -35 15z"/>
<path d="M1885 1245 c-5 -2 -29 -9 -52 -15 -26 -6 -43 -17 -43 -25 0 -18 5
-18 32 -4 16 9 23 8 29 -2 17 -27 10 -49 -16 -49 -16 0 -25 -6 -25 -15 0 -18
0 -18 69 -1 59 13 89 44 32 33 -17 -4 -31 -3 -31 1 0 4 -3 17 -6 30 -5 19 -2
22 20 22 16 0 26 5 26 15 0 14 -13 18 -35 10z"/>
<path d="M536 1215 c-10 -38 9 -63 56 -76 56 -15 102 -6 189 36 41 19 84 35
97 35 14 0 44 -20 78 -52 30 -28 57 -48 60 -45 4 3 -17 31 -46 61 -64 68 -75
69 -190 21 -106 -43 -157 -46 -194 -9 -14 15 -26 33 -26 40 0 24 -18 15 -24
-11z"/>
<path d="M1317 959 c-74 -73 -62 -93 14 -25 45 40 57 46 96 46 43 0 48 -3 127
-84 93 -96 128 -113 158 -76 19 23 25 60 9 60 -5 0 -14 -7 -21 -15 -24 -28
-51 -15 -141 70 -85 81 -91 85 -134 85 -42 0 -50 -4 -108 -61z"/>
<path d="M388 908 c-2 -18 -11 -24 -38 -28 l-35 -6 25 -13 c14 -8 26 -15 28
-16 2 -2 -2 -13 -8 -25 -16 -29 -5 -37 20 -15 20 18 21 18 45 -5 28 -26 31
-23 14 14 -10 22 -9 28 12 45 l24 20 -32 1 c-28 0 -33 4 -33 25 0 31 -17 33
-22 3z"/>
<path d="M1838 903 c-3 -25 -6 -28 -38 -25 -33 2 -34 2 -16 -13 11 -8 24 -15
29 -15 9 0 7 -17 -9 -55 -7 -18 -6 -18 21 3 l28 22 24 -22 c25 -24 28 -21 13
16 -8 21 -5 28 18 46 l27 21 -33 -5 c-30 -5 -33 -3 -39 24 -7 38 -21 39 -25 3z"/>
<path d="M780 533 c0 -23 60 -77 118 -105 66 -33 68 -33 212 -33 139 0 148 1
208 29 56 26 122 83 122 106 0 12 -105 1 -165 -17 -27 -9 -75 -32 -106 -53
l-57 -37 -49 33 c-27 18 -72 41 -99 52 -48 19 -184 37 -184 25z m182 -48 c35
-14 74 -34 88 -45 l25 -20 -45 0 c-57 0 -132 26 -173 62 l-32 27 37 1 c21 0
66 -11 100 -25z m428 10 c-6 -8 -39 -28 -73 -45 -46 -23 -74 -30 -116 -30
l-56 0 33 22 c55 35 145 68 186 68 33 0 37 -2 26 -15z"/>
<path d="M632 481 c-29 -34 -38 -51 -30 -59 8 -8 16 -5 28 11 17 21 19 21 37
4 27 -23 40 -22 59 8 16 25 16 27 -11 55 -16 17 -32 30 -35 30 -4 0 -25 -22
-48 -49z m66 7 c16 -16 15 -38 0 -38 -23 0 -39 16 -32 33 7 20 16 21 32 5z"/>
<path d="M1550 524 c0 -3 14 -24 31 -45 17 -22 28 -46 25 -54 -9 -25 -40 -16
-66 20 -22 31 -50 46 -50 29 0 -15 73 -94 86 -94 8 0 26 11 40 25 23 23 24 26
10 52 -21 38 -52 73 -65 73 -6 0 -11 -3 -11 -6z"/>
<path d="M726 412 c-31 -51 -33 -58 -18 -66 9 -5 29 -17 44 -28 17 -11 29 -15
33 -8 3 6 -7 18 -24 28 -17 9 -31 22 -31 29 0 21 19 25 42 9 26 -18 38 -20 38
-6 0 5 -14 17 -31 25 -25 13 -28 19 -19 31 11 12 16 11 40 -6 16 -11 31 -16
34 -11 3 5 -12 20 -34 35 l-39 25 -35 -57z"/>
<path d="M1426 435 c-10 -8 -24 -16 -29 -18 -6 -2 4 -27 22 -58 41 -66 37 -62
51 -54 8 5 6 13 -6 26 -27 30 -5 45 35 24 30 -15 51 -13 51 5 0 5 -14 11 -31
15 -22 5 -29 11 -24 22 16 45 -28 69 -69 38z m49 -25 c0 -22 -32 -37 -47 -22
-11 11 -9 16 7 28 22 16 40 14 40 -6z"/>
<path d="M845 398 c-21 -57 -35 -102 -35 -109 0 -19 21 -8 30 16 13 35 40 33
40 -3 0 -15 5 -33 12 -40 15 -15 54 -16 63 -2 11 19 57 11 62 -10 3 -11 11
-20 19 -20 7 0 12 6 9 13 -2 6 -9 38 -15 70 -6 31 -17 57 -23 57 -7 0 -28 -25
-47 -55 -19 -30 -38 -55 -41 -55 -4 0 -9 12 -12 28 -3 15 -8 34 -12 43 -5 12
2 20 26 28 24 8 30 14 22 22 -9 9 -21 6 -48 -10 -44 -26 -48 -26 -35 -2 5 11
10 24 10 30 0 15 -20 14 -25 -1z m165 -93 c0 -18 -4 -23 -15 -19 -17 7 -17 7
-9 28 9 24 24 19 24 -9z"/>
<path d="M1333 393 c-16 -6 -18 -143 -3 -143 6 0 10 9 10 20 0 28 48 47 64 25
6 -8 16 -11 22 -7 15 9 -76 112 -93 105z m34 -52 c10 -16 9 -20 -3 -25 -23 -9
-24 -8 -24 19 0 30 11 32 27 6z"/>
<path d="M1188 363 c-36 -4 -37 -5 -40 -51 l-3 -47 -25 48 c-32 62 -50 62 -50
-2 0 -27 -3 -56 -6 -65 -4 -10 -1 -16 9 -16 11 0 17 12 19 43 l3 42 22 -41
c12 -23 29 -44 38 -47 12 -5 15 4 16 56 0 68 17 54 18 -17 l1 -39 42 7 c64 10
87 38 54 66 -8 6 -12 18 -9 26 7 19 -15 44 -36 42 -9 -1 -33 -3 -53 -5z m68
-24 c3 -6 0 -15 -7 -20 -22 -13 -49 -11 -49 5 0 23 43 35 56 15z m12 -61 c3
-16 -34 -32 -50 -22 -14 9 -9 32 10 37 25 7 37 2 40 -15z"/>
</g>
</svg>
